<svg xmlns="http://www.w3.org/2000/svg" viewBox="0 0 338 555"><defs><style>.cls-1{isolation:isolate;}.cls-2,.cls-4{fill:#fff;}.cls-10,.cls-13,.cls-2,.cls-3{stroke:#1d1d1b;}.cls-2,.cls-3{stroke-miterlimit:10;}.cls-2{stroke-width:3.6px;}.cls-3,.cls-5{fill:#1d1d1b;}.cls-3{stroke-width:2.81px;}.cls-13,.cls-14,.cls-6{fill:#e04736;}.cls-7{fill:#1d70b7;}.cls-8,.cls-9{fill:#f7c6a5;}.cls-12,.cls-9{opacity:0.4;}.cls-11,.cls-12,.cls-14,.cls-9{mix-blend-mode:multiply;}.cls-10{fill:none;stroke-width:4.76px;}.cls-10,.cls-13{stroke-linejoin:bevel;}.cls-11{opacity:0.1;}.cls-13{stroke-width:4.17px;}</style></defs><title>error_personaje</title><g class="cls-1"><g id="Capa_1" data-name="Capa 1"><path class="cls-2" d="M110.53,521s-7.31-.18-10.5,1.88-4.87,6.94-5.06,9.38,10.92,9.56,32.29,9.56,23.9-1.92,30.65-3.8A142,142,0,0,0,175,531.47c1.68-.75,4.87-1.13,4.31-5.81s-1.88-4.5-1.88-4.5l-63-.38Z"/><path class="cls-3" d="M138.46,498.85s-15.75,15.56-19.12,18.56-4.87,3.37-4.87,3.37a15,15,0,0,1,7.15,3.52,28.85,28.85,0,0,0,8.22,4.73,64.5,64.5,0,0,0,20.06-.19c10.31-1.87,27.55-7.68,27.55-7.68s-5.62-20.62-5.81-24.94S173,483.29,173,483.29s-5.81-2.81-17.06-1.87-14,2.25-14,2.25Z"/><path class="cls-4" d="M127,512a15,15,0,0,1,9.62.62c4.93,2.11,6.28,3.46,6.28,3.46l3-2.58a23.94,23.94,0,0,0-9.64-4.63c-4.44-1-6.18.14-6.18.14Z"/><path class="cls-4" d="M122.1,517a15.09,15.09,0,0,1,9.62.62C136.65,519.68,138,521,138,521l3-2.58a23.94,23.94,0,0,0-9.64-4.63c-4.44-1-6.18.14-6.18.14Z"/><path class="cls-4" d="M132.19,506.86a15.09,15.09,0,0,1,9.62.62c4.92,2.11,6.27,3.46,6.27,3.46l3-2.58a23.94,23.94,0,0,0-9.64-4.62c-4.44-1-6.18.13-6.18.13Z"/><path class="cls-2" d="M255.35,521.19s7.31-.17,10.5,1.89,4.87,6.94,5.06,9.37S260,542,238.62,542s-23.9-1.92-30.65-3.79a143.37,143.37,0,0,1-17.11-6.52c-1.68-.74-4.87-1.12-4.31-5.81s1.88-4.5,1.88-4.5l63-.37Z"/><path class="cls-3" d="M227.42,499.09s15.74,15.55,19.12,18.55,4.87,3.38,4.87,3.38a15,15,0,0,0-7.15,3.52,29,29,0,0,1-8.22,4.73,64.86,64.86,0,0,1-20.06-.19c-10.31-1.87-27.55-7.69-27.55-7.69s5.62-20.62,5.81-24.93-1.32-12.93-1.32-12.93,5.82-2.82,17.06-1.88S224,483.9,224,483.9Z"/><path class="cls-4" d="M238.86,512.27a15.05,15.05,0,0,0-9.62.61c-4.93,2.12-6.28,3.47-6.28,3.47l-3-2.59a24,24,0,0,1,9.64-4.62c4.44-1,6.18.13,6.18.13Z"/><path class="cls-4" d="M243.78,517.19a15.05,15.05,0,0,0-9.62.61c-4.93,2.12-6.28,3.47-6.28,3.47l-3-2.59a24,24,0,0,1,9.64-4.62c4.44-1,6.18.14,6.18.14Z"/><path class="cls-4" d="M233.69,507.1a15,15,0,0,0-9.62.62c-4.93,2.11-6.28,3.46-6.28,3.46l-3-2.58a23.94,23.94,0,0,1,9.64-4.63c4.44-1,6.18.14,6.18.14Z"/><path class="cls-4" d="M172.3,514.59c0,3.52-2.54,6.38-5.67,6.38s-5.66-2.86-5.66-6.38,2.53-6.37,5.66-6.37S172.3,511.07,172.3,514.59Z"/><path class="cls-4" d="M204,514.19c0,3.52-2.54,6.37-5.66,6.37s-5.67-2.85-5.67-6.37,2.54-6.37,5.67-6.37S204,510.67,204,514.19Z"/><path class="cls-5" d="M233.08,487.2c1.67-19.58,2.55-78.34,2.55-90.07,0-7.54-.85-57.77-1.55-64.95v-.92H133.91c-1,8.7-1.61,56.6-1.61,65.87,0,11.62,3,72.66,4.28,94.09-2.54.21-4.58,3.07-4.58,5.66a4.94,4.94,0,0,0,4.94,4.94h.21v0l.27,0a3.69,3.69,0,0,0,.58-.09,53.91,53.91,0,0,1,19.22.61c13.06,3.07,24.46,7.11,25.37,7-.82-8.25-6.94-74.6-5.54-121.8.32-10.8,1.55-20.09,2.26-27.88a45,45,0,0,1,13-2.72c.9,9.3.9,25.5,2.1,66.3.83,28.3-5.27,76.9-7.91,84.36.36,0,16.52-6.58,26.92-8.42,11-1.93,15.68-.31,17-.31,3,0,5.37-4,5.37-7A5.38,5.38,0,0,0,233.08,487.2Zm-38.33,2.95c2-11.66,5.4-81.3,4.4-102.6-.44-9.41-.88-22-1.64-30.66a86.8,86.8,0,0,1,11.07,1.4l-.75-2.69s-10.54-2.19-18.41-2a59.59,59.59,0,0,0-16.27,3l-.18-.08,0,.15c-.69.25-1.3.48-1.78.7-6.33,2.87-6,4-4.56,4.94,1.14.78,2,.89,5.86-.28-.63,7.93,1,68,1,77,0,16.41,4.94,60.18,5.5,65.61,0,0-11.34-4.89-21.14-6.38a62.37,62.37,0,0,0-21.19.53c-1-.55-3.27-4.62,3.48-5.61-1.9-18.51-2.71-83.44-2.71-96,0-8,.42-48.09,1.23-61.41h90.6c.63,12.72,1.32,54.76,1.32,61.41,0,11.23-.42,75.85-2,91.73,5.08.64,3.75,5.53-.05,5.35a61.69,61.69,0,0,0-19.77,2.29c-7.64,2.14-16.09,4.15-16.09,4.15C193.3,498.22,194.19,493.36,194.75,490.15Z"/><path class="cls-4" d="M140.56,329.25c1.05.25,17.22,3.93,41.83,4.69,1.67.05,3.38.07,5.09.07a215,215,0,0,0,43.44-4.73c4.36-1.69,4.36-3.31,4.35-9.85v-.85l-7.72-59.39,0-.76v-.11c0-25.42-20.52-46.14-45.75-46.14a45.27,45.27,0,0,0-31.95,13.14A46.21,46.21,0,0,0,136,257.22l0,.29a11.77,11.77,0,0,0-.08,1.3v.25l-5.39,63.12c0,4.12,2.05,4.87,8.28,6.59Z"/><path class="cls-6" d="M196.72,211.89a16.89,16.89,0,0,1-30.13-1c-2.27-.7-5.32.87-4.55,2.41a22.35,22.35,0,0,0,39.18,1C202,213,199,211.39,196.72,211.89Z"/><path class="cls-7" d="M193.84,487.43c1.82-13,6.31-78.58,5.31-99.88-.44-9.41-.88-22-1.64-30.66a86.8,86.8,0,0,1,11.07,1.4l-.75-2.69s-10.54-2.19-18.41-2a59.59,59.59,0,0,0-16.27,3l-.18-.08,0,.15c-.69.25-1.3.48-1.78.7-6.33,2.87-6,4-4.56,4.94,1.14.78,2,.89,5.86-.28-.63,7.93,1,68,1,77,0,16.41,4.94,60.18,5.5,65.61,0,0-11.34-4.89-21.14-6.38a62.37,62.37,0,0,0-21.19.53c-1-.55-3.27-4.62,3.48-5.61-1.9-18.51-2.71-83.44-2.71-96,0-8,.42-48.09,1.23-61.41h90.6c.63,12.72,1.32,54.76,1.32,61.41,0,11.23-.42,75.85-2,91.73,5.08.64,4.11,6.84.31,6.65-5.4-.26-15.4-1.12-23.05,1s-14.71,4.85-14.71,4.85C191.76,499,193.39,490.66,193.84,487.43Z"/><path class="cls-8" d="M240.78,162.82c0,25.68-26.18,46.5-58.47,46.5s-58.46-20.82-58.46-46.5-29.45-46.42,58.46-46.5C263.29,116.25,240.78,137.14,240.78,162.82Z"/><path class="cls-9" d="M183.18,193.6c-25.3,0-47.28-11.31-58.38-27.92,2.51,23.84,27.63,42.57,58.26,42.57,30.44,0,55.44-18.5,58.21-42.14C230.08,182.49,208.26,193.6,183.18,193.6Z"/><path class="cls-6" d="M113.35,113.54c4-9.74,12.84-22.87,20.66-34.46,2.14-3.17,4.16-6.16,6-9a94.66,94.66,0,0,0,5.23-9.07l.73,6,4.19,1.24c.13-.15,13.16-15.68,24.12-29.73a67.48,67.48,0,0,0,9.63-15.74,59.94,59.94,0,0,0,2.77-9,186.72,186.72,0,0,1,12.46,18.3c6.46,11.14,11.48,21.22,11.53,21.32l4.49-.7.69-4.56a28.8,28.8,0,0,1,5.06,4.91c10.25,12.81,11.51,22.08,11.52,22.16l4.11,1.34,3.68-4c4,6,13.8,23,11.72,42.26a67.53,67.53,0,0,1-5,19.91,68.18,68.18,0,0,0-6.11-4.06c-9.83-5.82-22.27-10.19-36.61-12.52-7.08-1.15-23,8.28-23,8.28s-17.09-9.33-23-8.5c-34.35,4.82-38.39,20.87-41.58,24.57A29.81,29.81,0,0,1,113.35,113.54Z"/><path class="cls-5" d="M146.37,114.27c-17.44,0-31.58,13.75-31.58,30.7s14.14,30.71,31.58,30.71S178,161.93,178,145,163.82,114.27,146.37,114.27Zm0,56.29c-14.53,0-26.31-11.46-26.31-25.59s11.78-25.58,26.31-25.58,26.32,11.46,26.32,25.58S160.91,170.56,146.37,170.56Z"/><path class="cls-5" d="M217.56,114.27C200.11,114.27,186,128,186,145s14.14,30.71,31.59,30.71,31.58-13.75,31.58-30.71S235,114.27,217.56,114.27Zm0,56.29c-14.54,0-26.32-11.46-26.32-25.59s11.78-25.58,26.32-25.58,26.31,11.46,26.31,25.58S232.09,170.56,217.56,170.56Z"/><rect class="cls-5" x="176.12" y="139.39" width="10.9" height="5.76"/><path class="cls-10" d="M116.88,146.61s-13.84-14.35-5.77-34.08C116.29,99.87,129.38,81.81,138,68.7a84.83,84.83,0,0,0,8.53-16.64l1.78,14.58s13-15.49,24.07-29.67c3.38-4.33,7.15-9.79,9.3-15.15a57.81,57.81,0,0,0,3.57-13.77,202.89,202.89,0,0,1,15.93,22.76c6.58,11.35,11.61,21.47,11.61,21.47L214,44.06a29.45,29.45,0,0,1,8.73,7.43c10.89,13.62,12,23.37,12,23.37l5.67-6.12S257,89.84,254.28,115c-1.88,17.4-7.71,25.42-7.71,25.42"/><path class="cls-10" d="M133.4,119.73s-8.16-9.7-1-25.18,18.38-29.44,17.7-29.78"/><path class="cls-10" d="M176.63,124.33s4.76-44.76,5.1-59,.85-33,.85-33"/><path class="cls-10" d="M182.24,124.16a58.39,58.39,0,0,0,6-17.19,136.07,136.07,0,0,0,1.36-20.42"/><path class="cls-10" d="M214.23,58s11.23,17.7,12.94,32.16-6.81,22.63-6.81,22.63"/><path class="cls-5" d="M187.48,340h0c-1.77,0-3.55,0-5.27-.08-26-.8-42.43-4.69-43.11-4.86l-.12,0-1.76-.49c-5.94-1.64-12.68-3.49-12.68-12.49v-.26l5.39-63.13a17.28,17.28,0,0,1,.11-1.73,52.1,52.1,0,0,1,15.55-35.89,51.2,51.2,0,0,1,36.16-14.87c28.54,0,51.75,23.41,51.75,52.2v.09h0a.34.34,0,0,0,0,.1L241.24,318l0,.39v1c0,6.91,0,12.36-8.41,15.54l-.37.11A215.09,215.09,0,0,1,187.48,340Zm-46.92-10.76c1.05.25,17.22,3.93,41.83,4.69,1.67.05,3.38.07,5.09.07a215,215,0,0,0,43.44-4.73c4.36-1.69,4.36-3.31,4.35-9.85v-.85l-7.72-59.39,0-.76v-.11c0-25.42-20.52-46.14-45.75-46.14a45.27,45.27,0,0,0-31.95,13.14A46.21,46.21,0,0,0,136,257.22l0,.29a11.77,11.77,0,0,0-.08,1.3v.25l-5.39,63.12c0,4.12,2.05,4.87,8.28,6.59Z"/><path class="cls-5" d="M139.32,325.1c-1.73-5-18.1-24.8-23.93-29.06a79.61,79.61,0,0,0-11.74-7.25c.5-.37,3.49-5.43,7.18-9.12,3.93-3.94,20.85-20.15,20.85-20.15s-2.2-5.83-2.2-5.2-19.6,18.27-23.22,23.46c-3.44,4.93-6.3,9.29-6.18,9.72-.72-.36-8.62-2.9-8.62-2.32s6.77,3.15,14.8,8,25,24.51,26.77,27.8c4.09,7.4,1.71,16.8-4.57,21.81-8.11,6.45-11.49,5.58-13.23,1.33s-1.57-8-.31-9.13,3.45-1.83,4.7-.21c1.57,2.05,1.13,4.46,1.28,4.62s.95,1.1,1.58-.16.15-6.45.15-6.45a5.42,5.42,0,0,1,2.21-5.31,9.45,9.45,0,0,1,5.35-1.78s-2.75-3.7-6.53-1.34a9.57,9.57,0,0,0-2.45,2.27v0c0,.31-43-30.79-45.82-33.63s.32-5.51,2.36-8.18,38.49-41.72,38.49-41.72l-3.15-2.81c-.42.63-28.67,29.31-35,37.07s-10.5,13.23-9,16,43.42,31.74,42.75,31.78c-1.4.07-6.37,2-7.32,5.62-.17.63-4.54-5.59-8.82-2.2-7.56,6-5,24-3.78,26,2,3.47,3.62,4.89,6.93,3.78s3.46-2,3.46-2,5.36,4.56,8.66,2.67,4.88-8.34,4.73-7.71.78.63,4.4,0,7.09-3.62,10.87-7.09S141.06,330.14,139.32,325.1ZM103.9,336.28h0c-.14.22-2.9,3.13-3.48,6.45-.63,3.63,1,9.13,1,9.13s-.79,3.89-4.1,2.32-4-4.27-3.85-11.2c.08-3.62,3.42-9.49,5-10.79.64-.55,5.3,4.36,5.5,4.09C103.91,336.26,103.91,336.25,103.9,336.28Zm5.37-7c2.81-2.8,9.42-1,10-1.24,0-.1.06-.14.06-.06s0,.05-.06.06a13.85,13.85,0,0,0-.49,2.52c.1,0,.13,0,.08.09s-.07,0-.08-.09a17.38,17.38,0,0,0-4,1,6.1,6.1,0,0,0-3.15,3.31,14.69,14.69,0,0,1-3.46-.95C107.52,333.45,106.28,332.23,109.27,329.24Zm.94,24c-.67.52-4.66,4.16-6.18-4.71-1-5.84,3.71-11.39,4.12-11.11,1.08.76,2.52,1.74,2.52,1.74a12.88,12.88,0,0,0,.47,4.09,16.29,16.29,0,0,0,2.21,4.56S112.41,351.47,110.21,353.2Z"/><path class="cls-8" d="M195.7,210c0,5.05-6.18,9.15-13.8,9.15s-13.8-4.1-13.8-9.15,6.39-1.53,14-1.53S195.7,204.94,195.7,210Z"/><path class="cls-5" d="M193.82,208.72a13,13,0,0,1-24.18-.9,31.25,31.25,0,0,1-5-2.19c1.68,8.56,8.81,15,17.32,15,8,0,14.83-5.75,17-13.59A37.16,37.16,0,0,1,193.82,208.72Z"/><path class="cls-5" d="M239.37,162.44c-5.2,25.12-29,44.1-57.58,44.1s-52.39-19-57.59-44.1l-5-1.77c5.25,27.35,31.63,49.87,62.61,49.87s56.73-20.75,62-48.1Z"/><path class="cls-4" d="M146.37,170.56c-14.53,0-26.31-11.46-26.31-25.59s11.78-25.58,26.31-25.58,26.32,11.46,26.32,25.58S160.91,170.56,146.37,170.56Z"/><path class="cls-4" d="M217.68,170.56c-14.53,0-26.31-11.46-26.31-25.59s11.78-25.58,26.31-25.58S244,130.85,244,145,232.22,170.56,217.68,170.56Z"/><path class="cls-5" d="M148.87,134.08a3.5,3.5,0,0,1-3.5,3.49h0a3.49,3.49,0,0,1-3.49-3.49v-8.21a3.49,3.49,0,0,1,3.49-3.49h0a3.5,3.5,0,0,1,3.5,3.49Z"/><path class="cls-5" d="M220.05,134.08a3.49,3.49,0,0,1-3.49,3.49h0a3.49,3.49,0,0,1-3.49-3.49v-8.21a3.49,3.49,0,0,1,3.49-3.49h0a3.49,3.49,0,0,1,3.49,3.49Z"/><path class="cls-6" d="M229.53,278.52,195.2,238.35H172.39l22.42,26.41a18.1,18.1,0,0,1,4.52,12.05A14.69,14.69,0,0,1,194,287.93a14.07,14.07,0,0,1-9.23,3.69c-4.43,0-8.88-2.34-12.54-6.68L159,269.36l-23.09-.07,23,27.11c7.33,8.64,16.19,13.41,25,13.41a26,26,0,0,0,16.87-6.46c6.64-5.66,10.4-13.51,11.38-24.67l0-.16Z"/><g class="cls-11"><path class="cls-5" d="M235.26,320.18v-.85l-7.72-59.39,0-.75v-.12a46.27,46.27,0,0,0-24-40.57c5.5,18.39,8.92,44.07,8.92,72.5a320.82,320.82,0,0,1-2.72,42.46A203.8,203.8,0,0,0,230.92,330C235.28,328.34,235.28,326.72,235.26,320.18Z"/><path class="cls-5" d="M153.35,291c0-29.15,3.59-55.41,9.34-73.88a45.63,45.63,0,0,0-12.89,9A46.15,46.15,0,0,0,136,258l0,.28a9.85,9.85,0,0,0-.08,1.3v.25l-5.39,63.12c0,4.12,2.05,4.87,8.27,6.59l1.74.48c.6.14,6.16,1.41,15.4,2.61A321.87,321.87,0,0,1,153.35,291Z"/></g><g class="cls-12"><path class="cls-7" d="M151.65,415.07c0-29.68,2.32-57.16,6.27-79.63H138.08c-.82,13.33-1.24,53.39-1.24,61.42,0,12.53.81,77.45,2.72,96-6.76,1-4.51,5.07-3.49,5.62a62.11,62.11,0,0,1,21.2-.53c.42.06.85.13,1.27.21C154.22,475.05,151.65,446.28,151.65,415.07Z"/><path class="cls-7" d="M228,488.58c1.57-15.87,2-80.49,2-91.72,0-6.66-.68-48.7-1.31-61.42h-15.5c3.95,22.47,6.27,49.95,6.27,79.63s-2.34,57.42-6.32,79.94a124.92,124.92,0,0,1,15.2.23C232.12,495.42,233.09,489.22,228,488.58Z"/></g><path class="cls-8" d="M109.4,329.33c2.81-2.8,9.42-1,10-1.24,0-.11.06-.14.06-.06a.07.07,0,0,1-.06.06,13.72,13.72,0,0,0-.48,2.51c.1,0,.13,0,.07.1s-.07,0-.07-.1a17.64,17.64,0,0,0-4,1,6,6,0,0,0-3.14,3.3,14.62,14.62,0,0,1-3.47-.94C107.65,333.54,106.41,332.32,109.4,329.33Z"/><path class="cls-8" d="M100.55,342.82c-.63,3.62,1,9.12,1,9.12s-.8,3.9-4.11,2.33-4-4.28-3.85-11.2c.08-3.62,3.43-9.49,5-10.79.64-.55,5.31,4.36,5.51,4.09,0,0,0,0,0,0h0C103.88,336.59,101.12,339.5,100.55,342.82Z"/><path class="cls-8" d="M110.34,353.29c-.67.52-4.65,4.16-6.18-4.72-1-5.83,3.71-11.39,4.12-11.1,1.08.76,2.52,1.73,2.52,1.73a12.93,12.93,0,0,0,.47,4.1,16.29,16.29,0,0,0,2.21,4.56S112.54,351.56,110.34,353.29Z"/><path class="cls-8" d="M128.59,342.9c-8.11,6.46-11.49,5.59-13.22,1.34s-1.58-8-.32-9.13,3.45-1.83,4.7-.21c1.57,2.05,1.13,4.46,1.28,4.62s1,1.1,1.58-.16.16-6.45.16-6.45a5.42,5.42,0,0,1,2.2-5.32,9.48,9.48,0,0,1,5.35-1.77s-2.75-3.7-6.53-1.34a9.62,9.62,0,0,0-2.44,2.27v0c0,.31-43-30.8-45.81-33.63s.31-5.51,2.36-8.19c1.77-2.32,29.5-32.08,36.75-39.86a14.13,14.13,0,0,1,7.56,4.35,34.19,34.19,0,0,1,5.09,7.38c-5.28,5.14-18,16.95-20.91,21.05-3.43,4.93-6.29,9.28-6.18,9.72-.72-.36-8.61-2.91-8.61-2.32s6.76,3.15,14.79,8,25,24.51,26.77,27.8C137.25,328.5,134.87,337.9,128.59,342.9Z"/><g class="cls-12"><path class="cls-8" d="M133.05,320.87c-1.82-3.28-18.74-22.91-26.77-27.8s-14.79-7.4-14.79-8,7.89,2,8.62,2.32c-.12-.43,2.74-4.79,6.17-9.72,2.86-4.09,15.63-15.91,20.91-21a34,34,0,0,0-5.09-7.38c-.26-.27-.51-.51-.77-.74-9,10.34-26.07,30.73-26.07,30.73l-6.2,8.8a157.85,157.85,0,0,1,22.2,19.8c9.07,9.7,11.66,14.75,12.36,16.49l.06,0c3.78-2.36,6.53,1.34,6.53,1.34a9.39,9.39,0,0,0-5.35,1.77,5.4,5.4,0,0,0-2.2,5.31s.47,5.2-.16,6.46-1.42.31-1.57.15.28-2.57-1.29-4.61c-1.25-1.63-3.58-.77-4.7.21s-1.41,4.88.32,9.13,5.11,5.11,13.22-1.34C134.77,337.68,137.14,328.27,133.05,320.87Z"/></g><path class="cls-13" d="M67.42,297c3.33,4,20.32,12.37,31,20,7,5,12.94,9.53,17,7,1.81-1.13,20-9,19-10-6-6.05-26-22-32-26-4.55-3,40-44.83,40-44.83,5-10.46,12.94-26.83,12.94-26.83-9.3-6.93-29.55-4.59-39.91,12.29C115.43,228.63,62.46,291.05,67.42,297Z"/><path class="cls-14" d="M154.77,216.81a45.26,45.26,0,0,0-36.13,19.57S81.46,288.72,84.42,290c1.27.55,31.35,24.08,33,26,6,7,16-1,14-4-6.1-9.15-30-24.5-29-26,7-10,19.48-22.12,29-31L142,240.76C146.6,232.07,153.66,218.89,154.77,216.81Z"/><path class="cls-13" d="M249.42,290c-7,3.34-14.76-32.34-18.62-26.41l-9.24-20.42c-5-10.46-12.95-26.83-12.95-26.83,9.3-6.93,32.91-3.71,39.81,22.66S256.4,286.66,249.42,290Z"/><path class="cls-14" d="M208.72,216.81c12.59.32,20.68,4.9,29.7,18.19l11,30c-2.14.31-11,4.72-14,6-7,3-.85-17.16-4.7-11.8l-9.23-18.44C216.89,232.07,209.83,218.89,208.72,216.81Z"/><path class="cls-14" d="M213.44,55.58s15,31.31,13,41.81-7.78,14.2-7.78,14.2S188.42,54.07,186,41.15s0-28.4,0-28.4S208.6,42.25,213.44,55.58Z"/><path class="cls-14" d="M168.12,53.38c1.2.4,5.6,12,2.4,32.4s-7.9,32.41-9.1,32.36c-.09,0,14.7,6,14.7,6l5.2-94.8Z"/><path class="cls-14" d="M129.1,85.05c-.3.9-8.4,21.6-9,30a36.86,36.86,0,0,0,1.5,14.1l-7.2,12.9s-9-12.6-3.6-25.2S129.1,85.05,129.1,85.05Z"/><path class="cls-14" d="M236.54,76.59s9.56,14.46,9.56,26.46a57.87,57.87,0,0,1-5.1,22.5l5.4,10.2s8.7-11.1,7.5-29.4-12.9-36-12.9-36Z"/><path class="cls-4" d="M184.46,51.25s3.84,27,2.33,47C185.22,119,179.13,124,179.13,124Z"/><path class="cls-4" d="M140.8,114.75s-2.57-11.4.4-21.2S156,60.75,156,60.75s-24,30.54-24.34,44.46c-.22,9,2,11.73,2,11.73Z"/><path class="cls-4" d="M229.19,86.68c4.1,18.16-7.7,27.42-7.7,27.42s3.52,1,5.91,1.82,7.1-13.94.91-34.21-12.81-30.26-13-30-.15,4.35.3,4.8S225.08,68.52,229.19,86.68Z"/><path class="cls-4" d="M237.91,121.56a12,12,0,0,0,4.67-4.64,28.91,28.91,0,0,0,2.85-6.92,60.52,60.52,0,0,1-1.75,8.51c-.94,3.17-2.46,6.36-2.35,6.36A21,21,0,0,0,237.91,121.56Z"/><ellipse class="cls-5" cx="181.92" cy="188.5" rx="7.5" ry="2.5"/><path class="cls-13" d="M251.42,271s5,15-5,24-24-6-24-6l-44.24-62.87,21.77-16Z"/><path class="cls-14" d="M196.42,230s28.33,43.33,35,50c7,7,10,8,15,7s6.09-3.23,6.09-3.23-2.17,15.4-12.63,14.31-20.21-12.84-20.21-12.84L186.42,236Z"/><path class="cls-8" d="M182.63,238.91c-3.26,0-5.79-1.18-7.12-3.3a3.69,3.69,0,0,1-.25-3.39,7,7,0,0,1-5.9-4.84c-.54-1.67.07-3.4,1.67-4.83-4.69-1.51-5.73-4.42-5.75-6.64a4,4,0,0,1,2.44-4c-1.91-1.19-4.11-3.61-6.25-6-.91-1-1.77-1.94-2.52-2.69-2.56-2.57-3.5-6.43-2.26-9.41a4.89,4.89,0,0,1,4.56-3.21c2,0,4.05,1.08,6.19,3.22a16.52,16.52,0,0,1,2.57,3.46,7.8,7.8,0,0,0,3.41,3.54,14.84,14.84,0,0,0,6.63,1.95,3.74,3.74,0,0,1-.13-3.22c1.07-2.21,4.54-2.57,4.72-2.59a14.42,14.42,0,0,1,2.59-.2,19,19,0,0,1,10.05,2.81,19.56,19.56,0,0,1,8.12,10.53v0c.09.2,2,5,.85,12.44a22.18,22.18,0,0,1-5.84,11.81l-.12.11-.13.08c-5.28,3.25-12.57,3.91-15.68,4.2l-.41,0C183.58,238.88,183.1,238.91,182.63,238.91Z"/><path class="cls-5" d="M161.25,192.14c1.4,0,3.15.79,5.13,2.78,2.73,2.73,2.73,5.46,6.37,7.28s4.8,1.87,8.23,2.21a.72.72,0,0,0,.29.06l.15,0c.4,0,.81.05,1.22.05a18.52,18.52,0,0,0,4.44-.57.83.83,0,0,0,.6-1,.82.82,0,0,0-.8-.63.69.69,0,0,0-.2,0,16.7,16.7,0,0,1-4.05.53c-.3,0-.6,0-.89,0a2.82,2.82,0,0,1-.47-2.58c.59-1.21,2.79-1.68,3.51-1.75h.09a14,14,0,0,1,2.36-.18,17.53,17.53,0,0,1,9.25,2.59A18,18,0,0,1,204,210.7l0,0s1.89,4.55.75,11.64a20.76,20.76,0,0,1-5.4,10.95c-5,3.06-12,3.71-15,4l-.41,0a11.7,11.7,0,0,1-1.3.07c-2.74,0-4.79-.9-5.85-2.6a2.29,2.29,0,0,1,.06-2.42,1.11,1.11,0,0,0,0-1.09,1.13,1.13,0,0,0-1-.55,5.47,5.47,0,0,1-5.1-3.84c-.54-1.66.86-3,1.75-3.65a1.09,1.09,0,0,0-.36-1.93c-3.56-1-5.38-2.79-5.4-5.44a2.48,2.48,0,0,1,2.21-2.8,1.09,1.09,0,0,0,.22-2.08c-2.49-1-6.47-6.08-9.2-8.81-3.86-3.86-2.66-10.06,1.24-10.06m0-3a6.34,6.34,0,0,0-5.95,4.14,10.33,10.33,0,0,0,2.59,11c.73.73,1.57,1.65,2.47,2.64a64,64,0,0,0,4.81,4.92,5.75,5.75,0,0,0-1.39,4,7.94,7.94,0,0,0,4.79,7.24,5.5,5.5,0,0,0-.64,4.68,8.63,8.63,0,0,0,5.54,5.53,5.06,5.06,0,0,0,.77,3c1.61,2.58,4.59,4,8.39,4,.51,0,1,0,1.58-.08l.41,0c3.21-.29,10.74-1,16.32-4.41l.27-.17.23-.22a23.73,23.73,0,0,0,6.29-12.65c1.22-7.6-.72-12.72-.93-13.22a21,21,0,0,0-8.73-11.28,20.47,20.47,0,0,0-10.84-3,16.42,16.42,0,0,0-2.83.22c-.74.08-4.49.63-5.83,3.42a4.55,4.55,0,0,0-.45,2.11,14.62,14.62,0,0,1-4-1.53,6.44,6.44,0,0,1-2.8-3,18.15,18.15,0,0,0-2.79-3.74c-2.43-2.43-4.87-3.66-7.25-3.66Z"/></g></g></svg>