<svg xmlns="http://www.w3.org/2000/svg" xmlns:xlink="http://www.w3.org/1999/xlink" viewBox="0 0 314 468"><defs><style>.cls-1,.cls-17{fill:none;}.cls-2{isolation:isolate;}.cls-16,.cls-19,.cls-21,.cls-3{fill:#fff;}.cls-4{fill:#cbcbcb;}.cls-5{fill:#272724;}.cls-6{fill:#774f2e;}.cls-7{fill:#2184c3;}.cls-8{fill:#99755b;}.cls-9{fill:#1b709a;}.cls-10{fill:#ccc;stroke:#666;}.cls-10,.cls-21{stroke-miterlimit:10;}.cls-11{fill:#666;}.cls-12{fill:gray;}.cls-13,.cls-14{fill:#f9d0b3;}.cls-14,.cls-27{opacity:0.4;}.cls-14,.cls-20,.cls-25,.cls-27{mix-blend-mode:multiply;}.cls-15{fill:#f3b2a1;}.cls-16{opacity:0.23;}.cls-17{stroke:#fff9eb;stroke-linecap:round;stroke-linejoin:round;stroke-width:3.95px;}.cls-18{fill:#e75e45;}.cls-19{opacity:0.2;}.cls-20{fill:#bd9788;opacity:0.3;}.cls-21{stroke:#000;stroke-width:0.5px;}.cls-22{clip-path:url(#clip-path);}.cls-23{fill:#1d1d1b;}.cls-24,.cls-25{fill:#f7c6a5;}.cls-25{opacity:0.5;}.cls-26{fill:#f0b691;fill-rule:evenodd;}.cls-28{fill:#161615;}</style><clipPath id="clip-path"><rect class="cls-1" x="137.02" y="280.53" width="16.98" height="21.16"/></clipPath></defs><title>ucursos_403_02</title><g class="cls-2"><g id="Capa_1" data-name="Capa 1"><path d="M243.1,244.22c53.15-15.51,58.4-34.9,58.4-34.9s3-23.73-10.31-38.44a93.56,93.56,0,0,0-28.58-21.38s-36.4,36.95-45.63,45.78c-8.59,8.21-18.8,17.78-18.8,17.78a289.31,289.31,0,0,0,25.27-18.48c14.9-12,40.73-37.18,40.73-37.18l-70.83,57.48S166.42,266.6,243.1,244.22Z"/><path class="cls-3" d="M222.41,245.86c43.72-8.47,74.58-35.18,74.58-35.18s5.93-9.57-6.8-29.41-24.31-21-24.31-21-29.44,28.26-51.62,45.34C196,219.66,181.35,253.81,222.41,245.86Z"/><path class="cls-4" d="M197.89,240.1s.67-4.56,32.35-22.67c39.51-22.6,56.87-42.58,56.87-42.58s-4.06-7-9.49-10.9a80.65,80.65,0,0,0-10.22-6.29s-26.12,23.08-51.11,42.5c-9.31,7.23-19.55,11.86-20.44,17.78C194.8,224.93,197.89,240.1,197.89,240.1Z"/><path class="cls-5" d="M134.48,423.11c6.22,5.11,13.72,16,11.29,27.9s-13.54,14.74-37.9,14.89c-28,.18-31-6.72-32.05-17.23s1.35-22.44,15.68-29.54S128.27,418,134.48,423.11Z"/><path class="cls-6" d="M131.81,425.74c5.36,4.34,11.65,12.52,9.55,22.63S130,461.6,109,460.4s-26.79-4.09-27.72-13,1.17-19,13.51-25S126.45,421.41,131.81,425.74Z"/><path class="cls-5" d="M111.51,296.49c-30.11-2.81-64.63,11.44-59.79,32.7S66.81,369,69.5,381s5.39,32.15,5.39,32.15,8.61,17.44,38.24,17.44c25.85,0,34.47-15.8,34.47-15.8s-4.11-38.72-4.37-65.33C142.91,317,158.38,300.85,111.51,296.49Z"/><path class="cls-7" d="M112.57,302.46c-26.85-2.58-55.84,10-51.52,29.56s11.65,37.23,14,48.27,4.81,29.63,4.81,29.63S87.59,426,114,426c23.06,0,30.75-14.57,30.75-14.57s7.18-34.09,15.83-56.68C171.16,327.12,154.36,306.48,112.57,302.46Z"/><path class="cls-8" d="M133.69,426.64s4.42,7.5,1.89,12.72-12.63,6.86-22.1,6.53-24.72.8-25.11-9c-.31-8,3-10.93,3-10.93s6,4.56,20.21,4.56S133.69,426.64,133.69,426.64Z"/><path class="cls-9" d="M142.44,353a84.52,84.52,0,0,0-3.07,28.38c.95,16.15,2.25,38.58,4.91,30.3s16.6-58.43,16.6-58.43Z"/><path class="cls-9" d="M89.16,342.46s-10.42-2.94-12.32,3.42,12.79,69,12.79,69,5.27,6.91,19.9,8.32a69,69,0,0,0,26.53-2.44s-9,7.83-28.43,5.87a37,37,0,0,1-27.72-16.72s-4.49-29.78-8.28-41-12.79-43.56-12.79-43.56Z"/><path class="cls-5" d="M157.42,423.65c-6.22,5.11-13.72,16-11.29,27.91s13.54,14.73,37.91,14.89c28,.18,31-6.73,32-17.24s-1.35-22.43-15.68-29.53S163.64,418.54,157.42,423.65Z"/><path class="cls-6" d="M160.1,426.29c-5.36,4.33-11.65,12.51-9.56,22.62s11.42,13.24,32.38,12,26.79-4.09,27.72-13-1.16-19-13.51-25S165.45,422,160.1,426.29Z"/><path class="cls-5" d="M180.39,297c30.12-2.8,64.64,11.44,59.79,32.7s-15.08,39.78-17.77,51.77S217,413.66,217,413.66s-8.62,17.44-38.24,17.44c-25.86,0-34.48-15.81-34.48-15.81S140.6,383.36,138,354C135.08,321.79,133.53,301.39,180.39,297Z"/><path class="cls-7" d="M179.33,303c26.86-2.58,55.84,10,51.52,29.56s-11.65,37.23-14,48.28-4.8,29.62-4.8,29.62-7.69,16.07-34.11,16.07c-23.06,0-30.74-14.56-30.74-14.56s1.59-31.06-1.56-58.75C142.23,323.72,137.54,307,179.33,303Z"/><path class="cls-8" d="M158.22,427.18s-4.42,7.51-1.9,12.73,12.63,6.85,22.11,6.52,24.72.8,25.1-9c.32-8-3-10.93-3-10.93s-6,4.57-20.21,4.57S158.22,427.18,158.22,427.18Z"/><path class="cls-9" d="M202.75,343s10.42-2.94,12.31,3.43-12.79,69-12.79,69-5.27,6.9-19.89,8.32a69.11,69.11,0,0,1-26.53-2.45s9,7.83,28.42,5.87A37,37,0,0,0,212,410.46s4.48-29.77,8.27-41,12.79-43.56,12.79-43.56Z"/><path class="cls-9" d="M140.73,371.45s5.07,48.39,2.36,42.52-18.63-42.91-18.63-42.91Z"/><path class="cls-9" d="M145.76,371.06s-.84,47.63,1.87,41.76,12.27-42.14,12.27-42.14Z"/><path class="cls-5" d="M146,181s-48.87,6.57-80.7,80.82c-28,65.3-7.47,92.59-7.47,92.59S83.67,373,151.15,369.79c64.07-3.08,83.12-22.27,83.12-22.27s20.18-48.25-14.65-111.33C194.28,190.29,146,181,146,181Z"/><path class="cls-3" d="M146.21,186.24S101.13,194,71.26,265.43c-26.27,62.81-6,83.86-6,83.86s29.53,19,86.06,14.93c60.65-4.42,79.9-23.16,79.9-23.16S247.83,300,215.14,239.33C191.36,195.19,146.21,186.24,146.21,186.24Z"/><polygon points="148.3 267.69 142.78 268.69 127.19 208.53 132.79 207.53 148.3 267.69"/><polygon points="148.15 269.79 142.78 267.69 156.15 208.43 161.78 209.31 148.15 269.79"/><rect class="cls-10" x="127.78" y="273.69" width="36" height="50" rx="3.84"/><path d="M148.78,277.69h-6a1,1,0,0,1-1-1h0a1,1,0,0,1,1-1h6a1,1,0,0,1,1,1h0A1,1,0,0,1,148.78,277.69Z"/><rect class="cls-11" x="142.78" y="266.69" width="6" height="10"/><rect class="cls-12" x="131.78" y="303.69" width="29" height="4"/><rect class="cls-12" x="131.78" y="309.69" width="29" height="2"/><rect class="cls-12" x="131.78" y="312.69" width="29" height="2"/><rect class="cls-12" x="136.78" y="315.69" width="19" height="2"/><path class="cls-13" d="M227.92,154.31c-1.24,35.83-34.76,65.88-79.82,67.1s-80.31-26.94-83.34-62.66c-3-35,7.28-96.33,79.9-98.31S229,124,227.92,154.31Z"/><path class="cls-14" d="M148.72,199.45c-35.3,1-66.4-14-82.52-36.75,4.4,33.17,40.17,58.35,82.91,57.19,42.47-1.15,76.65-27.92,79.62-61C213.73,182.16,183.71,198.49,148.72,199.45Z"/><path class="cls-5" d="M232.88,136.44c-1.06-10.8-3-16.29-3-16.29C220.1,84,184.1,55.5,143,56.62,101,57.76,66.73,87,60,124.77a143.29,143.29,0,0,0-2.45,15.73c-.44,6.31,1.45,18.87,1.45,18.87,9.82,36.33,46.5,64.91,88.41,63.77,42.84-1.16,77.75-30.6,84.48-68.47H232A57.46,57.46,0,0,0,232.88,136.44Zm-85.61,81.12c-39.69,1.08-73.47-24.25-81.89-58.83,0,0-1.45-4.68-1.09-17.6s1.54-15.25,1.54-15.25C72,90.64,103.93,63.26,143.15,62.2s72.58,24.53,80.67,59.38a72.5,72.5,0,0,1,3,15.13c.51,7.36-1,17.73-1,17.73C219.26,189.39,186.93,216.48,147.27,217.56Z"/><path class="cls-15" d="M202.14,168.7c.11,4-5.1,7.41-11.63,7.59s-11.91-2.94-12-6.95,5.09-7.41,11.62-7.59S202,164.69,202.14,168.7Z"/><path class="cls-15" d="M109.18,171.23c.11,4-5.1,7.41-11.63,7.58s-11.91-2.93-12-6.94,5.09-7.41,11.63-7.59S109.07,167.21,109.18,171.23Z"/><path class="cls-5" d="M100.86,95.23c-21.23.58-38,17.78-37.43,38.42S81.66,170.56,102.89,170s38-17.79,37.44-38.43S122.1,94.65,100.86,95.23Zm1.76,64.7c-15.52.42-28.44-11.47-28.85-26.56s11.84-27.66,27.36-28.09,28.44,11.47,28.85,26.56S118.14,159.51,102.62,159.93Z"/><rect class="cls-5" x="138.05" y="124.64" width="13.28" height="11.5" transform="translate(-3.49 3.98) rotate(-1.56)"/><path class="cls-3" d="M102.6,159.09c-15,.41-27.57-11.12-28-25.74s11.47-26.81,26.52-27.22,27.56,11.11,28,25.74S117.64,158.68,102.6,159.09Z"/><path class="cls-5" d="M188.48,92.85c-21.23.57-38,17.78-37.43,38.42s18.23,36.91,39.47,36.33,38-17.78,37.43-38.42S209.72,92.27,188.48,92.85Zm1.76,64.7c-15.52.42-28.44-11.47-28.85-26.56s11.84-27.67,27.37-28.09,28.44,11.47,28.85,26.56S205.77,157.13,190.24,157.55Z"/><path class="cls-3" d="M190.22,156.71c-15.05.41-27.56-11.12-28-25.74s11.47-26.82,26.52-27.23,27.56,11.12,28,25.74S205.26,156.3,190.22,156.71Z"/><circle cx="101.23" cy="131.5" r="33.5" transform="translate(-2.72 2.14) rotate(-1.19)"/><path class="cls-16" d="M101.31,124.89c12.29,0,23.06,4.15,29.18,10.38a28.3,28.3,0,0,0,.48-5.16c0-16-13.32-29-29.74-29s-29.74,13-29.74,29a29.05,29.05,0,0,0,.5,5.31C78.08,129.1,88.93,124.89,101.31,124.89Z"/><path class="cls-17" d="M112,108.53a26.43,26.43,0,0,1,13.79,16.21"/><circle class="cls-3" cx="127.48" cy="130.28" r="1.98"/><circle cx="189.5" cy="131.5" r="33.5" transform="translate(-2.7 3.97) rotate(-1.19)"/><path class="cls-16" d="M189.58,124.89c12.29,0,23.07,4.15,29.18,10.38a28.3,28.3,0,0,0,.48-5.16c0-16-13.32-29-29.74-29s-29.74,13-29.74,29a29.05,29.05,0,0,0,.5,5.31C166.35,129.1,177.2,124.89,189.58,124.89Z"/><path class="cls-17" d="M200.22,108.53A26.43,26.43,0,0,1,214,124.74"/><circle class="cls-3" cx="215.75" cy="130.28" r="1.98"/><polygon class="cls-5" points="70.26 114.34 66.79 128.83 54.87 117.75 57.19 109.87 70.26 114.34"/><polygon class="cls-5" points="218.65 110.31 222.91 124.58 234.2 112.87 231.46 105.14 218.65 110.31"/><path class="cls-5" d="M238,105.58a4.46,4.46,0,0,0-.06-.77c-.29-3.38-1.95-9.63-12.45-17.27-4.39-3.19-11.05-8.47-16.66-12l-3.11-44.26S207.34,18.2,191,14.38c-4.14-1-7.62.67-11,2.74.41-.62-3.67,2.4-10.31,2.93a9.31,9.31,0,0,1-1.92-.23v0l-.59-.11-.58-.16v0c-5.8-1.38-12-9.42-12-9.42s-4.16-5-7.77-5.79C130.41.51,126.07,13,126.07,13L105.51,50.74A218.08,218.08,0,0,0,83.1,55.09C74.37,57.35,68.31,61,65.52,64.24a3.7,3.7,0,0,0-.91,1.38c-1.11,2.65-.26,3.91-.26,3.91.53,2.14,11.29,12.52,25.17,23,12.07,9.38,27.74,19.51,45.37,25.91a52.3,52.3,0,0,0,6,2l.36.11c4.95,1.49,13.44,1.75,23,1.38h.6a258,258,0,0,0,28.69-2.42l2.88-.33c16.09-1.91,26.26-4.4,32.34-6.35,4.47-1.23,7.32-2.34,7.72-3.14A5.55,5.55,0,0,0,238,105.58Z"/><path class="cls-18" d="M159.59,54.24l0-.12s-.78-.18-2.21-.48l-2.19-.55,0,.12c-8.31-1.58-41.87-.13-62.75,5.19C81.3,61.24,73.77,63.66,75.29,69.62c.79,3.12,26.64,26.24,48.56,36.68,19.43,9.26,20.56,9.7,40.34,9.42,24.27-.34,61.84-7.69,63.3-10.55.58-1.13,6.25-6.3-10.72-18.54C199.54,74.19,167.19,56.35,159.59,54.24Z"/><path class="cls-18" d="M201.76,35.55s1.39-11.44-13.1-14.82c-8.76-2-14.18,8.94-22.4,7.06v0l-.52-.1-.52-.15v0c-8.2-2-8.2-14.21-17-16.25C133.78,7.91,130,18.78,130,18.78l-23,43.27s18.39,17.12,44.39,22.66l1,.21,1,.27c25.77,6.55,49.84-.65,49.84-.65Z"/><path class="cls-3" d="M106.19,63.14S119.07,76.64,148.67,83a154.72,154.72,0,0,0,54.57,1.79l-.38-14.7s-26.14,3.18-50.19-2.63C132.37,62.57,113.37,50,113.37,50Z"/><path class="cls-19" d="M77.7,64.93s36.73,36,67.32,42.45,82.23-7.88,82.23-7.88,1.64-.41,1.64,2a4.79,4.79,0,0,1-1.4,3.62s-8,5.07-35.39,8.21c-16.34,1.88-39.52,3.87-48.74,1.09-38.54-11.6-68.07-44.85-68.07-44.85s-.76-1.11.22-3.42S77.7,64.93,77.7,64.93Z"/><path class="cls-20" d="M129.56,19.07s1.46,7.64-2,13.48a16.46,16.46,0,0,1-9.13,7.33Z"/><path class="cls-20" d="M201.93,36s-4.7,6.21-4.22,13a16.44,16.44,0,0,0,4.93,10.62Z"/><path class="cls-20" d="M165.18,27.81c-6.69-1.56-10-11.43-10-11.43s.55,14,8.31,16.19l.54.12a4.56,4.56,0,0,0,.53.13c7.93,1.47,15-10.59,15-10.59S171.87,29.37,165.18,27.81Z"/><path class="cls-4" d="M223.12,254.91c-1.54,48.61-34.23,85.19-76.27,85.19-39.37,0-69.1-33.83-74.33-78.09-25.59,65.27-8.31,87-8.31,87s29.8,20.15,86.85,15.8c61.21-4.68,80.4-23.83,80.4-23.83S243.86,306.55,223.12,254.91Z"/><rect class="cls-21" x="136.5" y="280" width="18" height="22"/><g class="cls-22"><path d="M138.61,306.58a4.14,4.14,0,0,1,.31,1.13c0,.45,0,1.15-.53,1.22a.57.57,0,0,1-.48-.18s0,1-.7,1a.89.89,0,0,1-.85-.65.42.42,0,0,1-.44.13c-.27-.09-.32-.56-.32-.56a.43.43,0,0,1-.42,0c-.21-.13-.12-.48-.12-.48s-.17.11-.36-.14a2.61,2.61,0,0,1,.15-1.75,4,4,0,0,1,.7-1.24,2.51,2.51,0,0,0,1.33,1.23A3.17,3.17,0,0,0,138.61,306.58Z"/><path class="cls-13" d="M138.36,306.74a4.17,4.17,0,0,1,.27,1c0,.29,0,.8-.33.85a.43.43,0,0,1-.45-.25l.48-.16a.56.56,0,0,0-.48,0,2.9,2.9,0,0,0-.45.23v.17l.36-.11s.1.83-.4,1-.89-.62-.89-.62-.25.29-.47.12-.18-.55-.18-.55-.2.26-.4.11,0-.51,0-.51-.23.16-.36,0a1.8,1.8,0,0,1,.09-1.27,4.94,4.94,0,0,1,.64-1.21,2,2,0,0,0,1.09,1.06A3.6,3.6,0,0,0,138.36,306.74Z"/><path d="M142.78,295.8a10.71,10.71,0,0,0-6.51,4.06c-2.37,3.41-2.24,4.6-2.24,4.6a3.88,3.88,0,0,0,2.24,1.9,12,12,0,0,0,2.66.3s1.13-4.35,1.35-5.28.59-2.12.59-2.12a15.6,15.6,0,0,0-1.3,2.78c-.45,1.37-1,4-1,4l2.61-7.89Z"/><path class="cls-3" d="M142.71,296a12.53,12.53,0,0,0-5,3,13.53,13.53,0,0,0-3.25,5.3s0,.84,1.64,1.5a3,3,0,0,0,2.41.25,29.75,29.75,0,0,1,1.38-4.95A48.42,48.42,0,0,1,142.71,296Z"/><path class="cls-4" d="M142.7,296.12a16,16,0,0,0-4.24,5,18.77,18.77,0,0,0-1.81,4.83,2.91,2.91,0,0,0,1,.24,5.68,5.68,0,0,0,.88,0,45.64,45.64,0,0,1,1.29-4.55A37.71,37.71,0,0,1,142.7,296.12Z"/><path d="M151.86,306.58a4.14,4.14,0,0,0-.31,1.13c0,.45,0,1.15.54,1.22a.56.56,0,0,0,.47-.18s0,1,.7,1a.89.89,0,0,0,.85-.65.42.42,0,0,0,.44.13c.27-.09.32-.56.32-.56a.43.43,0,0,0,.42,0c.21-.13.12-.48.12-.48s.17.11.36-.14a2.61,2.61,0,0,0-.15-1.75,4.08,4.08,0,0,0-.69-1.24,2.55,2.55,0,0,1-1.34,1.23A3.17,3.17,0,0,1,151.86,306.58Z"/><path class="cls-13" d="M152.11,306.74a4.17,4.17,0,0,0-.27,1c0,.29,0,.8.33.85a.43.43,0,0,0,.45-.25l-.48-.16a.59.59,0,0,1,.49,0,2.53,2.53,0,0,1,.44.23l0,.17-.37-.11s-.1.83.4,1,.89-.62.89-.62.26.29.47.12.18-.55.18-.55.2.26.4.11.05-.51.05-.51.23.16.36,0a1.74,1.74,0,0,0-.09-1.27,5.08,5.08,0,0,0-.63-1.21,2.09,2.09,0,0,1-1.09,1.06A3.65,3.65,0,0,1,152.11,306.74Z"/><path d="M147.69,295.8a10.71,10.71,0,0,1,6.51,4.06c2.37,3.41,2.24,4.6,2.24,4.6a3.88,3.88,0,0,1-2.24,1.9,12,12,0,0,1-2.66.3s-1.13-4.35-1.35-5.28-.58-2.12-.58-2.12A15.93,15.93,0,0,1,150.9,302c.45,1.37,1,4,1,4l-2.61-7.89Z"/><path class="cls-3" d="M147.76,296a12.53,12.53,0,0,1,5,3,13.53,13.53,0,0,1,3.25,5.3s0,.84-1.64,1.5a3,3,0,0,1-2.41.25,29.75,29.75,0,0,0-1.38-4.95A48.42,48.42,0,0,0,147.76,296Z"/><path class="cls-4" d="M147.77,296.12a16,16,0,0,1,4.24,5,18.3,18.3,0,0,1,1.81,4.83,2.91,2.91,0,0,1-1,.24,5.68,5.68,0,0,1-.88,0,45.64,45.64,0,0,0-1.29-4.55A37.71,37.71,0,0,0,147.77,296.12Z"/><path class="cls-5" d="M144.27,313.09a2.34,2.34,0,0,1,.86,2.14c-.18.92-1,1.14-2.91,1.15-2.15,0-2.37-.52-2.46-1.33a2.09,2.09,0,0,1,1.21-2.26A3.83,3.83,0,0,1,144.27,313.09Z"/><path class="cls-6" d="M144.06,313.29a1.84,1.84,0,0,1,.74,1.74c-.17.78-.88,1-2.49.92s-2.06-.31-2.13-1a1.76,1.76,0,0,1,1-1.92A3.32,3.32,0,0,1,144.06,313.29Z"/><path class="cls-5" d="M142.5,303.37c-2.31-.21-5,.88-4.59,2.51s1.16,3.06,1.37,4,.41,2.46.41,2.46.66,1.34,2.94,1.34a2.91,2.91,0,0,0,2.64-1.21s-.31-3-.33-5C144.91,305,146.1,303.71,142.5,303.37Z"/><path class="cls-7" d="M142.59,303.83c-2.07-.2-4.29.77-4,2.27s.89,2.86,1.08,3.71.37,2.27.37,2.27a2.75,2.75,0,0,0,2.62,1.23,2.58,2.58,0,0,0,2.36-1.11,36.25,36.25,0,0,1,1.21-4.36C147.08,305.72,145.79,304.14,142.59,303.83Z"/><path class="cls-8" d="M144.21,313.36s.34.58.14,1-1,.53-1.7.5-1.89.06-1.92-.69a1.06,1.06,0,0,1,.23-.84,2.7,2.7,0,0,0,1.55.35A4.16,4.16,0,0,0,144.21,313.36Z"/><path class="cls-9" d="M144.88,307.71a6.5,6.5,0,0,0-.24,2.18c.08,1.24.17,3,.38,2.32s1.27-4.48,1.27-4.48Z"/><path class="cls-9" d="M140.79,306.9s-.8-.22-.95.26a42.57,42.57,0,0,0,1,5.3,2.22,2.22,0,0,0,1.53.64,5.33,5.33,0,0,0,2-.19,3,3,0,0,1-2.18.45,2.85,2.85,0,0,1-2.13-1.28,29.17,29.17,0,0,0-.64-3.15c-.29-.86-1-3.34-1-3.34Z"/><path class="cls-5" d="M146,313.13a2.34,2.34,0,0,0-.87,2.15c.19.91,1,1.13,2.91,1.14,2.15,0,2.38-.52,2.46-1.32a2.09,2.09,0,0,0-1.2-2.27A3.83,3.83,0,0,0,146,313.13Z"/><path class="cls-6" d="M146.23,313.34a1.81,1.81,0,0,0-.73,1.73c.16.78.88,1,2.49.93s2-.32,2.12-1a1.75,1.75,0,0,0-1-1.92A3.34,3.34,0,0,0,146.23,313.34Z"/><path class="cls-5" d="M147.79,303.41c2.31-.21,5,.88,4.59,2.51s-1.16,3.06-1.36,4-.42,2.47-.42,2.47-.66,1.34-2.93,1.34a2.91,2.91,0,0,1-2.65-1.22s-.28-2.45-.49-4.7C144.31,305.31,144.19,303.75,147.79,303.41Z"/><path class="cls-7" d="M147.71,303.87c2.06-.2,4.29.77,4,2.27s-.9,2.86-1.08,3.71-.37,2.27-.37,2.27a2.75,2.75,0,0,1-2.62,1.23,2.58,2.58,0,0,1-2.36-1.11,32.4,32.4,0,0,0-.12-4.51C144.86,305.46,144.5,304.18,147.71,303.87Z"/><path class="cls-8" d="M146.09,313.4a1.27,1.27,0,0,0-.15,1c.2.4,1,.53,1.7.5s1.9.06,1.93-.69a1.1,1.1,0,0,0-.23-.84,2.64,2.64,0,0,1-1.55.36A4,4,0,0,1,146.09,313.4Z"/><path class="cls-9" d="M149.51,306.94s.8-.22.94.27a41,41,0,0,1-1,5.29,2.18,2.18,0,0,1-1.53.64,5.3,5.3,0,0,1-2-.19,3,3,0,0,0,2.18.45,2.85,2.85,0,0,0,2.13-1.28,28.9,28.9,0,0,1,.63-3.15c.29-.86,1-3.34,1-3.34Z"/><path class="cls-9" d="M144.75,309.13s.39,3.71.18,3.26-1.43-3.29-1.43-3.29Z"/><path class="cls-9" d="M145.13,309.1s-.06,3.65.15,3.2.94-3.23.94-3.23Z"/><path class="cls-5" d="M145.15,294.51s-3.75.5-6.19,6.2c-2.15,5-.58,7.11-.58,7.11s2,1.43,7.17,1.18c4.92-.24,6.38-1.71,6.38-1.71s1.55-3.7-1.13-8.55A8.93,8.93,0,0,0,145.15,294.51Z"/><path class="cls-3" d="M145.17,294.91s-3.46.6-5.76,6.08c-2,4.82-.46,6.44-.46,6.44s2.27,1.46,6.61,1.14c4.65-.34,6.13-1.78,6.13-1.78s1.28-3.15-1.23-7.81A8.42,8.42,0,0,0,145.17,294.91Z"/><path class="cls-13" d="M151.44,292.46c-.09,2.75-2.67,5.05-6.13,5.15s-6.16-2.07-6.4-4.81.56-7.4,6.14-7.55S151.52,290.13,151.44,292.46Z"/><path class="cls-14" d="M145.36,295.92A7.44,7.44,0,0,1,139,293.1c.33,2.55,3.08,4.48,6.36,4.39s5.88-2.14,6.11-4.68A7.47,7.47,0,0,1,145.36,295.92Z"/><path class="cls-5" d="M151.82,291.09a5.74,5.74,0,0,0-.23-1.25,6.79,6.79,0,0,0-6.67-4.88,6.54,6.54,0,0,0-6.37,5.23s-.15.72-.19,1.21a10,10,0,0,0,.11,1.45,6.9,6.9,0,0,0,6.79,4.89,6.64,6.64,0,0,0,6.49-5.26h0A4.34,4.34,0,0,0,151.82,291.09Zm-6.57,6.22A6.18,6.18,0,0,1,139,292.8a4.86,4.86,0,0,1-.08-1.35,4,4,0,0,1,.12-1.18,6.26,6.26,0,0,1,12.13-.33,5.87,5.87,0,0,1,.23,1.17,7.71,7.71,0,0,1-.08,1.36A6.18,6.18,0,0,1,145.25,297.31Z"/><path class="cls-15" d="M149.46,293.56c0,.31-.39.57-.89.58s-.92-.22-.92-.53.39-.57.89-.58S149.45,293.25,149.46,293.56Z"/><path class="cls-15" d="M142.32,293.76c0,.3-.39.56-.89.58s-.91-.23-.92-.53.39-.57.89-.59S142.32,293.45,142.32,293.76Z"/><path class="cls-5" d="M141.69,287.92a2.87,2.87,0,1,0,3,2.79A2.93,2.93,0,0,0,141.69,287.92Zm.13,5a2.1,2.1,0,1,1,2.1-2.16A2.13,2.13,0,0,1,141.82,292.89Z"/><rect class="cls-5" x="144.54" y="290.18" width="1.02" height="0.88" transform="translate(-7.84 4.05) rotate(-1.56)"/><path class="cls-3" d="M141.82,292.82a2,2,0,1,1,2-2.09A2.05,2.05,0,0,1,141.82,292.82Z"/><path class="cls-5" d="M148.41,287.74a2.87,2.87,0,1,0,3,2.79A2.91,2.91,0,0,0,148.41,287.74Zm.14,5a2.1,2.1,0,1,1,2.1-2.16A2.14,2.14,0,0,1,148.55,292.71Z"/><path class="cls-3" d="M148.55,292.64a2,2,0,1,1,2-2.09A2.06,2.06,0,0,1,148.55,292.64Z"/><polygon class="cls-5" points="139.34 289.39 139.07 290.5 138.16 289.65 138.33 289.05 139.34 289.39"/><polygon class="cls-5" points="150.73 289.08 151.06 290.18 151.92 289.28 151.71 288.68 150.73 289.08"/><path class="cls-5" d="M152.21,288.72v-.06c0-.26-.15-.74-1-1.33-.33-.24-.84-.65-1.27-.92l-.24-3.4s.12-1-1.14-1.3a1.1,1.1,0,0,0-.84.22,2.92,2.92,0,0,1-.79.22l-.15,0h-.09a2.24,2.24,0,0,1-.92-.72,1.58,1.58,0,0,0-.6-.45,1.24,1.24,0,0,0-1.59.67l-1.58,2.9a15.93,15.93,0,0,0-1.72.33,2.74,2.74,0,0,0-1.35.7.72.72,0,0,0-.07.11.36.36,0,0,0,0,.3,9.53,9.53,0,0,0,1.94,1.77,12.86,12.86,0,0,0,3.48,2l.46.15h0a6.46,6.46,0,0,0,1.77.1h0a19.88,19.88,0,0,0,2.21-.18l.22,0a13.15,13.15,0,0,0,2.48-.48c.34-.1.56-.18.59-.25A.41.41,0,0,0,152.21,288.72Z"/><path class="cls-18" d="M146.19,284.77h0l-.17,0-.17,0h0a17.34,17.34,0,0,0-4.82.39c-.86.22-1.43.41-1.32.87a13,13,0,0,0,3.73,2.81,4.77,4.77,0,0,0,3.1.72,15.75,15.75,0,0,0,4.86-.81c0-.08.48-.48-.83-1.42A26.12,26.12,0,0,0,146.19,284.77Z"/><path class="cls-18" d="M149.43,283.34s.11-.88-1-1.14c-.68-.15-1.09.69-1.72.54h-.08c-.63-.15-.63-1.09-1.3-1.25a1.1,1.1,0,0,0-1.41.57l-1.77,3.32a7.9,7.9,0,0,0,3.41,1.74l.08,0,.08,0a8,8,0,0,0,3.83,0Z"/><path class="cls-3" d="M142.1,285.46a6.59,6.59,0,0,0,3.26,1.52,11.9,11.9,0,0,0,4.19.14l0-1.13a12.31,12.31,0,0,1-3.86-.2,11,11,0,0,1-3-1.34Z"/><path class="cls-19" d="M139.91,285.6s2.82,2.76,5.17,3.25,6.31-.6,6.31-.6.12,0,.12.16a.35.35,0,0,1-.1.27,7.55,7.55,0,0,1-2.72.64,13.68,13.68,0,0,1-3.74.08,13.14,13.14,0,0,1-5.23-3.44s-.06-.09,0-.27S139.91,285.6,139.91,285.6Z"/><path class="cls-20" d="M143.89,282.07a1.73,1.73,0,0,1-.15,1,1.23,1.23,0,0,1-.7.56Z"/><path class="cls-20" d="M149.44,283.37a1.69,1.69,0,0,0-.32,1,1.29,1.29,0,0,0,.38.81Z"/><path class="cls-20" d="M146.62,282.75c-.51-.12-.77-.88-.77-.88s.05,1.07.64,1.24h.08c.61.11,1.16-.81,1.16-.81S147.14,282.87,146.62,282.75Z"/><path class="cls-4" d="M151.07,300.18c-.12,3.73-2.63,6.54-5.85,6.54-3,0-5.31-2.6-5.71-6-2,5-.64,6.68-.64,6.68s2.29,1.55,6.67,1.21c4.7-.35,6.17-1.82,6.17-1.82S152.66,304.14,151.07,300.18Z"/><path class="cls-23" d="M146.07,295.69c0,.12-.29.21-.65.21s-.64-.09-.64-.21.29-.22.64-.22S146.07,295.57,146.07,295.69Z"/><circle class="cls-5" cx="148.67" cy="290.93" r="0.43"/><circle class="cls-5" cx="141.8" cy="290.93" r="0.43"/></g><path class="cls-23" d="M157.93,196.39c0,1.55-3.75,2.8-8.38,2.8s-8.39-1.25-8.39-2.8,3.76-2.79,8.39-2.79S157.93,194.85,157.93,196.39Z"/><path class="cls-24" d="M262,215.38a24.45,24.45,0,0,1-11-2.68c-5.61-2.81-9.3-8-10.66-15.17a33.63,33.63,0,0,1-.39-9.64L235,149l.18-.39a6.24,6.24,0,0,1,5.64-3.49,8.3,8.3,0,0,1,2.11.29c5.34,1.43,6.56,7.55,7.09,10.16.16.83.36,1.77.58,2.75l.92-29.31c-.08-.79-.33-4.58,2-7.2a7.64,7.64,0,0,1,6.06-2.45,7.14,7.14,0,0,1,5.7,2.39,3,3,0,0,1,.22.28V117.5c0-.09-.2-4.25,2.34-6.93a7.27,7.27,0,0,1,5.5-2.18A8.5,8.5,0,0,1,280,111a9.72,9.72,0,0,1,2,6.93v1.31a5.93,5.93,0,0,1,5-3.21h.27c6.11.31,7.72,4.6,7.72,6.82v9.46a4.12,4.12,0,0,1,.32-.41,6.08,6.08,0,0,1,4.9-2,9.79,9.79,0,0,1,1,.06c3.79.35,5.17,5.63,5.17,9.09,0,2.49,1.25,61.48,1.27,62.08v.18l0,.18c0,.12-2.95,12.58-16.67,12.58-9.84,0-14.55-1.49-16.38-2.3A24.35,24.35,0,0,1,262,215.38Z"/><path d="M273.25,109.89c8.24,0,7.24,8,7.24,8l.37,42.77,1.26-37.77s1.23-5.33,4.88-5.33h.19c6.3.32,6.3,5.32,6.3,5.32l0,39,2-25s-.9-5.42,4.73-5.42c.28,0,.59,0,.92,0,2.82.26,3.8,5.07,3.8,7.6s1.27,62.11,1.27,62.11A15.22,15.22,0,0,1,291,212.63c-12.68,0-16.48-2.54-16.48-2.54A22.44,22.44,0,0,1,262,213.88a23,23,0,0,1-10.34-2.52C239,205,241.49,187.89,241.49,187.89l-5-38.64a4.76,4.76,0,0,1,4.28-2.6,6.57,6.57,0,0,1,1.72.24c4.4,1.18,5.51,6.52,6,9,1,5,3.21,13.64,3.21,13.64L253,129s-1.08-8.08,6.52-8.08,6.16,9.35,6.16,9.35l1.26,29.15V117.5s-.42-7.61,6.34-7.61m0-3a8.82,8.82,0,0,0-6.59,2.65c-2.79,2.95-2.78,7.19-2.75,8v1.33a9.53,9.53,0,0,0-4.42-1,9.12,9.12,0,0,0-7.19,3c-2.61,3-2.44,7.06-2.33,8.24L249.34,149a9.75,9.75,0,0,0-6.07-5,10,10,0,0,0-2.5-.34,7.71,7.71,0,0,0-7,4.38l-.35.77.11.84,4.95,38.27a35.17,35.17,0,0,0,.43,9.9c1.45,7.6,5.41,13.21,11.46,16.23a25.5,25.5,0,0,0,24.38-.54c2.41.91,7.3,2.13,16.26,2.13a18.12,18.12,0,0,0,18.13-13.76l.08-.35v-.36c0-.6-1.27-59.57-1.27-62,0-3.45-1.37-10.11-6.53-10.59-.41,0-.81-.05-1.19-.05a8.83,8.83,0,0,0-3.72.74v-6.32c0-3.15-2.43-8-9.14-8.32H287a6.43,6.43,0,0,0-3.55,1,10.19,10.19,0,0,0-2.36-5.58c-1.27-1.43-3.65-3.14-7.84-3.14Z"/><path class="cls-25" d="M251.48,174.76s17.61,3.16,19.77,13.8a98.05,98.05,0,0,1,2.23,16.33s3.49-17.4-1.65-24.57C264.24,169.75,251.48,174.76,251.48,174.76Z"/><path class="cls-25" d="M282.66,175.84s10.09,1.9,13.35,1.94c4.57.05,6.9-1.82,8-2.26a50.28,50.28,0,0,1-8,.91C292.46,176.43,282.66,175.84,282.66,175.84Z"/><path class="cls-26" d="M111.66,297s14.55,5.73,22.4,10.89c3.19,2.1,3.11,4.85,2.86,5.65s-2.3,2-5.84,1.08c-8-2-19.65-5.35-20.43-5.11-1.13.35.6,3.06-1.51,6.34-2.76,4.28-6.58,7.49-10.06,8.42s-8.38-1.59-8.38-1.59-11.88-11.91-12.51-17.67,3.5-12.12,5.88-14.34,16.44-6,17.92-5.21,6.76,6,7.87,8.47A9.6,9.6,0,0,0,111.66,297Z"/><g class="cls-27"><path class="cls-26" d="M107.3,316.26c-.1.07-1.86-1.16-2-1.09,5.54-2.38,3.89-5.6,4.64-5.83.13,0,.58,1.22-.23,3.17A6.13,6.13,0,0,1,107.3,316.26Z"/><path class="cls-26" d="M102.28,321.68c-.12,0-1.37-1.7-1.49-1.67,6-.41,5.53-4,6.31-4,.14,0,.14,1.34-1.26,2.92A6.15,6.15,0,0,1,102.28,321.68Z"/><path class="cls-26" d="M90.94,324.2c-.2,0-1-2.16-1.17-2.18,9.59,2.47,13.61-.16,12.42-.55-.14-.05-1.35,2.1-3.89,2.68C96.36,324.78,93.91,324.63,90.94,324.2Z"/><path class="cls-26" d="M131.8,310.71c-7.84-5.16-22.39-10.89-22.39-10.89a9.6,9.6,0,0,1-1.8-3.07c-1.11-2.51-6.4-7.7-7.88-8.47s-15.28,2.91-17.84,5.15a17.54,17.54,0,0,1,2.35-2.87c2.37-2.22,16.44-6,17.91-5.21s6.77,6,7.88,8.48a9.35,9.35,0,0,0,1.8,3.07s14.55,5.73,22.39,10.89c3.19,2.1,3.12,4.85,2.87,5.65-.17.52-1,1.13-2.37,1.33A6.11,6.11,0,0,0,131.8,310.71Z"/><path class="cls-26" d="M102.25,321.82a12.07,12.07,0,0,1,1.7-1.92A9.24,9.24,0,0,1,102.25,321.82Z"/></g><path class="cls-28" d="M101.29,285.39a1.69,1.69,0,0,1,.7.11c1.47.78,6.76,6,7.87,8.47a9.6,9.6,0,0,0,1.8,3.07s14.55,5.73,22.4,10.89c3.19,2.1,3.11,4.85,2.86,5.65-.2.64-1.36,1.41-3.38,1.41a10.25,10.25,0,0,1-2.46-.33c-7.69-1.93-18.85-5.12-20.31-5.12h-.12c-1.13.35,0,5.1-3.52,6.85-.68.34-.43,3.39-3.91,4.31-1,.28-3.17,3.12-4.82,3.32a12,12,0,0,1-1.33.08,17,17,0,0,1-6.37-1.39s-11.88-11.91-12.51-17.67,3.5-12.12,5.88-14.34c2.16-2,14-5.32,17.22-5.32m0-2.84h0c-3.58,0-16.2,3.31-19.16,6.08-2.55,2.38-7.55,9.61-6.77,16.73.71,6.43,11.23,17.26,13.33,19.36l.35.36.46.21A19.5,19.5,0,0,0,97.07,327a12.76,12.76,0,0,0,1.66-.1c1.87-.22,3.4-1.61,4.64-2.72.27-.24.65-.58.86-.75a7.38,7.38,0,0,0,5-4.94,8.41,8.41,0,0,0,3.35-5.66c2.21.53,5.77,1.48,8.82,2.29s6.2,1.65,9,2.35a13.17,13.17,0,0,0,3.15.41c3,0,5.43-1.33,6.09-3.38.57-1.79.46-5.95-4-8.89-7.08-4.66-19.1-9.63-22.19-10.88a14.06,14.06,0,0,1-1-1.87c-1.42-3.18-7.24-8.82-9.15-9.83a4.25,4.25,0,0,0-2-.43Z"/><path d="M54.91,214.89C11.24,228.15,5.4,243,5.4,243S1.24,262.2,10.86,274.1a71.5,71.5,0,0,0,22,17.82s35.84-32.27,44.56-38.57c10.44-7.54,13.5-10.87,13.5-10.87S79.94,245.33,67.07,255s-35.48,30-35.48,30l59.28-42.54S124.8,193.66,54.91,214.89Z"/><path class="cls-3" d="M73.05,216c-35.77,6.79-62.54,28.35-62.54,28.35s-5.48,7.73,3.3,23.77,18,17,18,17,25-23.92,44.83-36.58S106.64,209.63,73.05,216Z"/><path class="cls-4" d="M92.76,228.55s4.08-6.8-28.24,10.9S17.06,272.3,17.06,272.3s2.69,5.45,6.67,8.51a55.84,55.84,0,0,0,7.56,4.93s20.5-18.54,41.4-33.52C92.75,237.84,92.76,228.55,92.76,228.55Z"/><path d="M17.13,283.35C46,318.79,63.18,316.88,63.18,316.88s19.49-4.48,26.7-18.51a69.57,69.57,0,0,0,7.5-27.27s-40.57-16.61-50.43-21C37.77,246.07,27,241.19,27,241.19a257.85,257.85,0,0,0,22.56,13.54c14.18,7.69,42.14,19.77,42.14,19.77l-80-39S-12.78,246.6,17.13,283.35Z"/><path class="cls-3" d="M10.9,266.12c20.67,30.08,51.46,45.46,51.46,45.46s9.39,1.71,20.78-13.35,8.59-24,8.59-24-31.53-13.89-52-25.54C22.85,239.08-8.52,237.86,10.9,266.12Z"/><path class="cls-4" d="M8.29,244.73s4.41,1.1,27.83,19.1c29.21,22.46,49.6,29.59,49.6,29.59s4-4.84,5.24-9.84a59.85,59.85,0,0,0,1.55-9.12s-23.25-11.82-45.57-24.64c-8.31-4.77-19.06-10.44-25.65-11.23C15.64,237.92,8.29,244.73,8.29,244.73Z"/></g></g></svg>