<svg xmlns="http://www.w3.org/2000/svg" viewBox="0 0 530 510"><defs><style>.cls-1{isolation:isolate;}.cls-13,.cls-2,.cls-23{fill:#fff;}.cls-3{fill:#cbcbcb;}.cls-10,.cls-4{fill:#f9d0b3;}.cls-5{fill:#272724;}.cls-6{fill:#774f2e;}.cls-7{fill:#2184c3;}.cls-8{fill:#99755b;}.cls-9{fill:#1b709a;}.cls-10{opacity:0.4;}.cls-10,.cls-14,.cls-17{mix-blend-mode:multiply;}.cls-11{fill:#f3b2a1;}.cls-12{fill:#e75e45;}.cls-13{opacity:0.2;}.cls-14{fill:#bd9788;opacity:0.3;}.cls-15{fill:#1d1d1b;}.cls-16,.cls-17{fill:#f7c6a5;}.cls-17{opacity:0.5;}.cls-18{fill:#ff0;}.cls-19{fill:#6d6d6d;}.cls-19,.cls-20,.cls-21,.cls-22,.cls-23{stroke:#000;}.cls-19,.cls-20{stroke-miterlimit:10;stroke-width:4.12px;}.cls-20{fill:#e6e6e6;}.cls-21{fill:#f7931e;}.cls-21,.cls-22,.cls-23{stroke-linecap:round;stroke-linejoin:round;stroke-width:4.51px;}.cls-22{fill:#f15a24;}</style></defs><title>ucursos_403_01</title><g class="cls-1"><g id="Capa_1" data-name="Capa 1"><path d="M320.1,245.22c53.15-15.51,58.4-34.9,58.4-34.9s3-23.73-10.31-38.44a93.56,93.56,0,0,0-28.58-21.38s-36.4,36.95-45.63,45.78c-8.59,8.21-18.8,17.78-18.8,17.78a289.31,289.31,0,0,0,25.27-18.48c14.9-12,40.73-37.18,40.73-37.18l-70.83,57.48S243.42,267.6,320.1,245.22Z"/><path class="cls-2" d="M299.41,246.86c43.72-8.47,74.58-35.18,74.58-35.18s5.93-9.57-6.8-29.41-24.31-21-24.31-21-29.44,28.26-51.62,45.34C273,220.66,258.35,254.81,299.41,246.86Z"/><path class="cls-3" d="M274.89,241.1s.67-4.56,32.35-22.67c39.51-22.6,56.87-42.58,56.87-42.58s-4.06-7-9.49-10.9a80.65,80.65,0,0,0-10.22-6.29s-26.12,23.08-51.11,42.5c-9.31,7.23-19.55,11.86-20.44,17.78C271.8,225.93,274.89,241.1,274.89,241.1Z"/><path d="M137.84,339.25s3.66,8.31,4,14.8c.33,5.8-.46,14.94-7,15.86a7.36,7.36,0,0,1-6.2-2.36s-.25,13.24-9.08,13.27-11.1-8.49-11.1-8.49-2.36,3-5.78,1.75-4.15-7.29-4.15-7.29a5.31,5.31,0,0,1-5.47.18c-2.74-1.68-1.53-6.16-1.53-6.16s-2.21,1.38-4.64-1.86-1.37-13,1.93-22.8a50.48,50.48,0,0,1,9-16.11,32.94,32.94,0,0,0,17.4,16C128.82,341.4,137.84,339.25,137.84,339.25Z"/><path class="cls-4" d="M134.55,341.3s3.51,8.89,3.46,12.67-.07,10.52-4.3,11.1a5.55,5.55,0,0,1-5.83-3.19l6.32-2.19a7.6,7.6,0,0,0-6.36-.61,35,35,0,0,0-5.8,3.06l-.2,2.12,4.75-1.35s1.26,10.75-5.21,12.9c-6.93,2.3-11.57-8.1-11.57-8.1s-3.33,3.71-6.12,1.55-2.33-7.13-2.33-7.13-2.62,3.37-5.28,1.39-.57-6.71-.57-6.71-3,2.17-4.73.28-1.37-8.68,1.14-16.5,8.31-15.73,8.31-15.73,4,9.84,14.18,13.78A46,46,0,0,0,134.55,341.3Z"/><path d="M192.09,198.9s-53.86,8.36-84.76,52.83-29.2,59.93-29.2,59.93,10.33,20.45,29.2,24.76A157.6,157.6,0,0,0,142,340.36s14.7-56.7,17.53-68.79c2.63-11.26,7.66-27.62,7.66-27.62S156,262.44,150.26,280.2s-13.46,52-13.46,52l34-102.85Z"/><path class="cls-2" d="M191.17,201.74s-35,9.54-64.45,38.53c-31.38,30.87-42.36,69.09-42.36,69.09s.29,10.87,21.44,19.54,31.34,3.22,31.34,3.22,7.35-39.15,18-64.44S191.17,201.74,191.17,201.74Z"/><path class="cls-3" d="M191,203.06s-35.63,26.1-55.21,64.6-23.53,62.83-23.53,62.83,6.89,3.15,13.28,3.23A81.34,81.34,0,0,0,137,333s6.86-31.14,16.83-59.29C163.45,246.75,191,203.06,191,203.06Z"/><path class="cls-5" d="M211.48,424.11c6.22,5.11,13.72,16,11.29,27.9s-13.54,14.74-37.9,14.89c-28,.18-31-6.72-32.05-17.23s1.35-22.44,15.68-29.54S205.27,419,211.48,424.11Z"/><path class="cls-6" d="M208.81,426.74c5.36,4.34,11.65,12.52,9.55,22.63S207,462.6,186,461.4s-26.79-4.09-27.72-13,1.17-19,13.51-25S203.45,422.41,208.81,426.74Z"/><path class="cls-5" d="M188.51,297.49c-30.11-2.81-64.63,11.44-59.79,32.7S143.81,370,146.5,382s5.39,32.15,5.39,32.15,8.61,17.44,38.24,17.44c25.85,0,34.47-15.8,34.47-15.8s-4.11-38.72-4.37-65.33C219.91,318,235.38,301.85,188.51,297.49Z"/><path class="cls-7" d="M189.57,303.46c-26.85-2.58-55.84,10-51.52,29.56s11.65,37.23,14,48.27,4.81,29.63,4.81,29.63S164.59,427,191,427c23.06,0,30.75-14.57,30.75-14.57s7.18-34.09,15.83-56.68C248.16,328.12,231.36,307.48,189.57,303.46Z"/><path class="cls-8" d="M210.69,427.64s4.42,7.5,1.89,12.72-12.63,6.86-22.1,6.53-24.72.8-25.11-9c-.31-8,3-10.93,3-10.93s6,4.56,20.21,4.56S210.69,427.64,210.69,427.64Z"/><path class="cls-9" d="M219.44,354a84.52,84.52,0,0,0-3.07,28.38c.95,16.15,2.25,38.58,4.91,30.3s16.6-58.43,16.6-58.43Z"/><path class="cls-9" d="M166.16,343.46s-10.42-2.94-12.32,3.42,12.79,69,12.79,69,5.27,6.91,19.9,8.32a69,69,0,0,0,26.53-2.44s-9,7.83-28.43,5.87a37,37,0,0,1-27.72-16.72s-4.49-29.78-8.28-41-12.79-43.56-12.79-43.56Z"/><path class="cls-5" d="M234.42,424.65c-6.22,5.11-13.72,16-11.29,27.91s13.54,14.73,37.91,14.89c28,.18,31-6.73,32-17.24s-1.35-22.43-15.68-29.53S240.64,419.54,234.42,424.65Z"/><path class="cls-6" d="M237.1,427.29c-5.36,4.33-11.65,12.51-9.56,22.62s11.42,13.24,32.38,12,26.79-4.09,27.72-13-1.16-19-13.51-25S242.45,423,237.1,427.29Z"/><path class="cls-5" d="M257.39,298c30.12-2.8,64.64,11.44,59.79,32.7s-15.08,39.78-17.77,51.77S294,414.66,294,414.66s-8.62,17.44-38.24,17.44c-25.86,0-34.48-15.81-34.48-15.81S217.6,384.36,215,355C212.08,322.79,210.53,302.39,257.39,298Z"/><path class="cls-7" d="M256.33,304c26.86-2.58,55.84,10,51.52,29.56s-11.65,37.23-14.05,48.28-4.8,29.62-4.8,29.62-7.69,16.07-34.11,16.07c-23.06,0-30.74-14.56-30.74-14.56s1.59-31.06-1.56-58.75C219.23,324.72,214.54,308,256.33,304Z"/><path class="cls-8" d="M235.22,428.18s-4.42,7.51-1.9,12.73,12.63,6.85,22.11,6.52,24.72.8,25.1-9c.32-8-3-10.93-3-10.93s-6,4.57-20.21,4.57S235.22,428.18,235.22,428.18Z"/><path class="cls-9" d="M279.75,344s10.42-2.94,12.31,3.43-12.79,69-12.79,69-5.27,6.9-19.89,8.32a69.11,69.11,0,0,1-26.53-2.45s9,7.83,28.42,5.87A37,37,0,0,0,289,411.46s4.48-29.77,8.27-41,12.79-43.56,12.79-43.56Z"/><path class="cls-9" d="M217.73,372.45s5.07,48.39,2.36,42.52-18.63-42.91-18.63-42.91Z"/><path class="cls-9" d="M222.76,372.06s-.84,47.63,1.87,41.76,12.27-42.14,12.27-42.14Z"/><path class="cls-5" d="M223,182s-48.87,6.57-80.7,80.82c-28,65.3-7.47,92.59-7.47,92.59s25.85,18.63,93.33,15.38c64.08-3.08,83.12-22.27,83.12-22.27s20.18-48.25-14.65-111.33C271.28,191.29,223,182,223,182Z"/><path class="cls-2" d="M223.21,187.24s-45.08,7.78-75,79.19c-26.27,62.81-6,83.86-6,83.86s29.53,19,86.06,14.93c60.65-4.42,79.9-23.16,79.9-23.16S324.83,301,292.14,240.33C268.36,196.19,223.21,187.24,223.21,187.24Z"/><path class="cls-4" d="M304.92,155.31c-1.24,35.83-34.76,65.88-79.82,67.1s-80.31-26.94-83.34-62.66c-3-35,7.28-96.33,79.9-98.31S306,125,304.92,155.31Z"/><path class="cls-10" d="M225.72,200.45c-35.3,1-66.4-14-82.52-36.75,4.4,33.17,40.17,58.35,82.91,57.19,42.47-1.15,76.65-27.92,79.62-61C290.73,183.16,260.71,199.49,225.72,200.45Z"/><path class="cls-5" d="M309.88,137.44c-1.06-10.8-3-16.29-3-16.29C297.1,85,261.1,56.5,220,57.62c-42,1.14-76.27,30.42-83,68.15a143.29,143.29,0,0,0-2.45,15.73c-.44,6.31,1.45,18.87,1.45,18.87,9.82,36.33,46.5,64.91,88.41,63.77,42.84-1.16,77.75-30.6,84.48-68.47H309A57.46,57.46,0,0,0,309.88,137.44Zm-85.61,81.12c-39.69,1.08-73.47-24.25-81.89-58.83,0,0-1.45-4.68-1.09-17.6s1.54-15.25,1.54-15.25c6.18-35.24,38.1-62.62,77.32-63.68s72.58,24.53,80.67,59.38a72.5,72.5,0,0,1,3,15.13c.51,7.36-1,17.73-1,17.73C296.26,190.39,263.93,217.48,224.27,218.56Z"/><path class="cls-11" d="M279.14,169.7c.11,4-5.1,7.41-11.63,7.59s-11.91-2.94-12-6.95,5.09-7.41,11.62-7.59S279,165.69,279.14,169.7Z"/><path class="cls-11" d="M186.18,172.23c.11,4-5.1,7.41-11.63,7.58s-11.91-2.93-12-6.94,5.09-7.41,11.63-7.59S186.07,168.21,186.18,172.23Z"/><path class="cls-5" d="M177.86,96.23c-21.23.58-38,17.78-37.43,38.42s18.23,36.91,39.46,36.34,38-17.79,37.44-38.43S199.1,95.65,177.86,96.23Zm1.76,64.7c-15.52.42-28.44-11.47-28.85-26.56s11.84-27.66,27.36-28.09,28.44,11.47,28.85,26.56S195.14,160.51,179.62,160.93Z"/><rect class="cls-5" x="215.05" y="125.64" width="13.28" height="11.5" transform="translate(-3.49 6.07) rotate(-1.56)"/><path class="cls-2" d="M179.6,160.09c-15,.41-27.57-11.12-28-25.74s11.47-26.81,26.52-27.22,27.56,11.11,28,25.74S194.64,159.68,179.6,160.09Z"/><path class="cls-5" d="M265.48,93.85c-21.23.57-38,17.78-37.43,38.42s18.23,36.91,39.47,36.33,38-17.78,37.43-38.42S286.72,93.27,265.48,93.85Zm1.76,64.7c-15.52.42-28.44-11.47-28.85-26.56s11.84-27.67,27.37-28.09,28.44,11.47,28.85,26.56S282.77,158.13,267.24,158.55Z"/><path class="cls-2" d="M267.22,157.71c-15.05.41-27.56-11.12-28-25.74s11.47-26.82,26.52-27.23,27.56,11.12,28,25.74S282.26,157.3,267.22,157.71Z"/><polygon class="cls-5" points="147.26 115.34 143.79 129.83 131.87 118.75 134.19 110.87 147.26 115.34"/><polygon class="cls-5" points="295.64 111.31 299.9 125.58 311.2 113.87 308.46 106.14 295.64 111.31"/><path class="cls-5" d="M315,106.58a4.46,4.46,0,0,0-.06-.77c-.29-3.38-1.95-9.63-12.45-17.27-4.39-3.19-11.05-8.47-16.66-12l-3.11-44.26S284.34,19.2,268,15.38c-4.14-1-7.62.67-11,2.74.41-.62-3.67,2.4-10.31,2.93a9.31,9.31,0,0,1-1.92-.23v0l-.59-.11-.58-.16v0c-5.8-1.38-12-9.42-12-9.42s-4.16-5-7.77-5.79C207.41,1.51,203.07,14,203.07,14L182.51,51.74a218.08,218.08,0,0,0-22.41,4.35c-8.73,2.26-14.79,5.86-17.58,9.15a3.7,3.7,0,0,0-.91,1.38c-1.11,2.65-.26,3.91-.26,3.91.53,2.14,11.29,12.52,25.17,23,12.07,9.38,27.74,19.51,45.37,25.91a52.3,52.3,0,0,0,6,2l.36.11c4.95,1.49,13.44,1.75,23,1.38h.6a258,258,0,0,0,28.69-2.42l2.88-.33c16.09-1.91,26.26-4.4,32.34-6.35,4.47-1.23,7.32-2.34,7.72-3.14A5.55,5.55,0,0,0,315,106.58Z"/><path class="cls-12" d="M236.59,55.24l0-.12s-.78-.18-2.21-.48l-2.19-.55,0,.12c-8.31-1.58-41.87-.13-62.75,5.19-11.15,2.84-18.68,5.26-17.16,11.22.79,3.12,26.64,26.24,48.56,36.68,19.43,9.26,20.56,9.7,40.34,9.42,24.27-.34,61.84-7.69,63.3-10.55.58-1.13,6.25-6.3-10.72-18.54C276.54,75.19,244.19,57.35,236.59,55.24Z"/><path class="cls-12" d="M278.76,36.55s1.39-11.44-13.1-14.82c-8.76-2-14.18,8.94-22.4,7.06v0l-.52-.1-.52-.15v0c-8.2-2-8.2-14.21-17-16.25C210.78,8.91,207,19.78,207,19.78l-23,43.27s18.39,17.12,44.39,22.66l1,.21,1,.27c25.77,6.55,49.84-.65,49.84-.65Z"/><path class="cls-2" d="M183.19,64.14S196.07,77.64,225.67,84a154.72,154.72,0,0,0,54.57,1.79l-.38-14.7s-26.14,3.18-50.19-2.63C209.37,63.57,190.37,51,190.37,51Z"/><path class="cls-13" d="M154.7,65.93s36.73,36,67.32,42.45,82.23-7.88,82.23-7.88,1.64-.41,1.64,2a4.79,4.79,0,0,1-1.4,3.62s-8,5.07-35.39,8.21c-16.34,1.88-39.52,3.87-48.74,1.09-38.54-11.6-68.07-44.85-68.07-44.85s-.76-1.11.22-3.42S154.7,65.93,154.7,65.93Z"/><path class="cls-14" d="M206.56,20.07s1.46,7.64-1.95,13.48a16.46,16.46,0,0,1-9.13,7.33Z"/><path class="cls-14" d="M278.93,37s-4.7,6.21-4.22,13a16.42,16.42,0,0,0,4.94,10.62Z"/><path class="cls-14" d="M242.18,28.81c-6.68-1.56-10-11.43-10-11.43s.55,14,8.31,16.19l.54.12a4.56,4.56,0,0,0,.53.13c7.93,1.47,15-10.59,15-10.59S248.87,30.37,242.18,28.81Z"/><path class="cls-3" d="M300.12,255.91c-1.54,48.61-34.23,85.19-76.27,85.19-39.37,0-69.1-33.83-74.33-78.09-25.59,65.27-8.31,87-8.31,87s29.8,20.15,86.85,15.8c61.21-4.68,80.4-23.83,80.4-23.83S320.86,307.55,300.12,255.91Z"/><path class="cls-15" d="M234.93,197.39c0,1.55-3.75,2.8-8.38,2.8s-8.39-1.25-8.39-2.8,3.76-2.79,8.39-2.79S234.93,195.85,234.93,197.39Z"/><circle class="cls-5" cx="268.83" cy="135.4" r="5.59"/><circle class="cls-5" cx="179.39" cy="135.4" r="5.59"/><path class="cls-16" d="M339,216.38a24.45,24.45,0,0,1-11-2.68c-5.61-2.81-9.3-8-10.66-15.17a33.63,33.63,0,0,1-.39-9.64L312,150l.18-.39a6.24,6.24,0,0,1,5.64-3.49,8.3,8.3,0,0,1,2.11.29c5.34,1.43,6.56,7.55,7.09,10.16.16.83.36,1.77.58,2.75l.92-29.31c-.08-.79-.33-4.58,2-7.2a7.64,7.64,0,0,1,6.06-2.45,7.14,7.14,0,0,1,5.7,2.39,3,3,0,0,1,.22.28V118.5c0-.09-.2-4.25,2.34-6.93a7.27,7.27,0,0,1,5.5-2.18A8.5,8.5,0,0,1,357,112a9.72,9.72,0,0,1,2,6.93v1.31a5.93,5.93,0,0,1,5-3.21h.27c6.11.31,7.72,4.6,7.72,6.82v9.46a4.12,4.12,0,0,1,.32-.41,6.08,6.08,0,0,1,4.9-2,9.79,9.79,0,0,1,1,.06c3.79.35,5.17,5.63,5.17,9.09,0,2.49,1.25,61.48,1.27,62.08v.18l0,.18c0,.12-2.95,12.58-16.67,12.58-9.84,0-14.55-1.49-16.38-2.3A24.35,24.35,0,0,1,339,216.38Z"/><path d="M350.25,110.89c8.24,0,7.24,8,7.24,8l.37,42.77,1.26-37.77s1.23-5.33,4.88-5.33h.19c6.3.32,6.3,5.32,6.3,5.32l0,39,2-25s-.9-5.42,4.73-5.42c.28,0,.59,0,.92,0,2.82.26,3.8,5.07,3.8,7.6s1.27,62.11,1.27,62.11A15.22,15.22,0,0,1,368,213.63c-12.68,0-16.48-2.54-16.48-2.54A22.44,22.44,0,0,1,339,214.88a23,23,0,0,1-10.34-2.52C316,206,318.49,188.89,318.49,188.89l-5-38.64a4.76,4.76,0,0,1,4.28-2.6,6.57,6.57,0,0,1,1.72.24c4.4,1.18,5.51,6.52,6,9,1,5,3.21,13.64,3.21,13.64L330,130s-1.08-8.08,6.52-8.08,6.16,9.35,6.16,9.35l1.26,29.15V118.5s-.42-7.61,6.34-7.61m0-3a8.82,8.82,0,0,0-6.59,2.65c-2.79,2.95-2.78,7.19-2.75,8v1.33a9.53,9.53,0,0,0-4.42-1,9.12,9.12,0,0,0-7.19,3c-2.61,3-2.44,7.06-2.33,8.24L326.34,150a9.75,9.75,0,0,0-6.07-5,10,10,0,0,0-2.5-.34,7.71,7.71,0,0,0-7,4.38l-.35.77.11.84,5,38.27a35.17,35.17,0,0,0,.43,9.9c1.45,7.6,5.41,13.21,11.46,16.23a25.5,25.5,0,0,0,24.38-.54c2.41.91,7.3,2.13,16.26,2.13a18.12,18.12,0,0,0,18.13-13.76l.08-.35v-.36c0-.6-1.27-59.57-1.27-62,0-3.45-1.37-10.11-6.53-10.59-.41,0-.81-.05-1.19-.05a8.83,8.83,0,0,0-3.72.74v-6.32c0-3.15-2.43-8-9.14-8.32H364a6.43,6.43,0,0,0-3.55,1,10.19,10.19,0,0,0-2.36-5.58c-1.27-1.43-3.65-3.14-7.84-3.14Z"/><path class="cls-17" d="M328.48,175.76s17.61,3.16,19.77,13.8a98.05,98.05,0,0,1,2.23,16.33s3.49-17.4-1.65-24.57C341.24,170.75,328.48,175.76,328.48,175.76Z"/><path class="cls-17" d="M359.66,176.84s10.09,1.9,13.35,1.94c4.57.05,6.9-1.82,8-2.26a50.28,50.28,0,0,1-8,.91C369.46,177.43,359.66,176.84,359.66,176.84Z"/><rect class="cls-18" x="46.94" y="266.94" width="352.12" height="53.12"/><path d="M397,269v49H49V269H397m4.12-4.12H44.88v57.24H401.12V264.88Z"/><rect class="cls-18" x="27.94" y="266.94" width="20.12" height="53.12"/><path d="M46,269v49H30V269H46m4.12-4.12H25.88v57.24H50.12V264.88Z"/><polygon points="77.44 319 50 319 86.21 268 113.65 268 77.44 319"/><polygon points="132.31 319 104.87 319 141.08 268 168.52 268 132.31 319"/><polygon points="187.18 319 159.74 319 195.95 268 223.39 268 187.18 319"/><polygon points="242.05 319 214.61 319 250.82 268 278.26 268 242.05 319"/><polygon points="296.92 319 269.48 319 305.69 268 333.13 268 296.92 319"/><polygon points="351.79 319 324.35 319 360.56 268 388 268 351.79 319"/><polygon class="cls-19" points="299 504 324 504 379 320 354 320 299 504"/><polygon class="cls-19" points="10 504 35 504 90 320 65 320 10 504"/><polygon class="cls-20" points="433 504 408 504 353 320 378 320 433 504"/><polygon class="cls-20" points="143 504 118 504 63 320 88 320 143 504"/><polygon class="cls-21" points="468.54 311.81 440.56 311.81 410.76 492.36 498.33 492.36 468.54 311.81"/><rect class="cls-22" x="390" y="491.46" width="130" height="13.54"/><polygon class="cls-23" points="479.38 379.51 429.72 379.51 432.43 357.85 475.76 357.85 479.38 379.51"/></g></g></svg>